<?xml version="1.0" standalone="no"?>
<!DOCTYPE svg PUBLIC "-//W3C//DTD SVG 20010904//EN"
 "http://www.w3.org/TR/2001/REC-SVG-20010904/DTD/svg10.dtd">
<svg version="1.0" xmlns="http://www.w3.org/2000/svg"
 width="1024.000000pt" height="500.000000pt" viewBox="0 0 1024.000000 500.000000"
 preserveAspectRatio="xMidYMid meet">

<g transform="translate(0.000000,500.000000) scale(0.100000,-0.100000)"
fill="#000000" stroke="none">
<path d="M0 2500 l0 -2500 5120 0 5120 0 0 2500 0 2500 -5120 0 -5120 0 0
-2500z m6832 171 l167 -164 193 188 193 188 3 -186 c1 -102 1 -273 0 -379 l-3
-193 -193 189 -193 190 -187 -187 c-104 -103 -191 -187 -195 -187 -4 0 -7 170
-7 377 l0 376 28 -23 c15 -14 102 -98 194 -189z m1166 -73 l3 -68 69 0 70 0 0
70 0 70 35 0 35 0 0 -165 0 -165 -35 0 -35 0 0 70 0 70 -70 0 -69 0 -3 -67 -3
-68 -37 -3 -38 -3 0 159 c0 87 3 162 7 166 4 4 21 6 38 4 30 -3 30 -3 33 -70z
m483 43 c16 -16 29 -37 29 -45 0 -24 -61 -21 -83 4 -20 24 -60 26 -82 4 -29
-29 -16 -41 79 -75 74 -27 96 -49 96 -94 0 -65 -83 -114 -168 -99 -52 9 -70
20 -87 54 -22 42 -19 50 19 50 25 0 38 -6 50 -25 21 -32 74 -34 101 -5 18 20
18 21 -1 39 -10 11 -45 26 -76 35 -62 18 -98 52 -98 93 0 60 46 92 133 93 52
0 62 -3 88 -29z m296 3 c40 -30 44 -84 9 -112 -29 -22 -33 -32 -13 -32 27 0
48 -37 45 -76 -5 -61 -39 -78 -159 -82 l-99 -4 0 167 0 167 94 -4 c77 -2 100
-7 123 -24z m321 6 c26 -16 52 -53 52 -76 0 -2 -18 -4 -39 -4 -26 0 -41 5 -45
15 -17 46 -100 32 -122 -21 -48 -115 45 -230 121 -148 30 32 82 31 77 -1 -13
-76 -156 -109 -229 -52 -53 42 -71 157 -35 227 38 76 146 105 220 60z m212
-90 c0 -136 12 -173 64 -190 45 -14 100 1 118 33 7 12 14 77 16 145 3 85 8
122 16 119 17 -5 20 -204 4 -252 -18 -53 -54 -77 -117 -77 -103 0 -131 45
-131 210 0 60 3 112 7 115 18 19 23 -2 23 -103z m320 33 l0 -78 78 78 c70 70
102 91 102 69 0 -5 -32 -39 -70 -76 l-70 -68 72 -77 c39 -42 76 -77 80 -79 15
-7 8 -22 -9 -22 -10 0 -55 39 -100 87 l-82 88 -1 -87 c0 -71 -3 -88 -15 -88
-13 0 -15 25 -15 165 0 140 2 165 15 165 12 0 15 -15 15 -77z"/>
<path d="M8630 2570 c0 -39 1 -40 36 -40 44 0 74 15 74 38 0 29 -21 42 -67 42
l-43 0 0 -40z"/>
<path d="M8630 2435 c0 -45 0 -45 34 -45 54 0 86 16 86 43 0 35 -19 47 -72 47
l-48 0 0 -45z"/>
</g>
</svg>
