<?xml version="1.0" standalone="no"?>
<!DOCTYPE svg PUBLIC "-//W3C//DTD SVG 20010904//EN"
 "http://www.w3.org/TR/2001/REC-SVG-20010904/DTD/svg10.dtd">
<svg version="1.0" xmlns="http://www.w3.org/2000/svg"
 width="1799.000000pt" height="947.000000pt" viewBox="0 0 1799.000000 947.000000"
 preserveAspectRatio="xMidYMid meet">

<g transform="translate(0.000000,947.000000) scale(0.100000,-0.100000)"
fill="#000000" stroke="none">
<path d="M0 4735 l0 -4735 8995 0 8995 0 0 4735 0 4735 -8995 0 -8995 0 0
-4735z m10937 576 c54 -27 93 -83 93 -133 l0 -38 -68 0 c-68 0 -68 0 -85 35
-19 40 -77 70 -117 60 -58 -15 -94 -93 -57 -123 7 -6 62 -28 122 -48 122 -41
173 -69 205 -114 19 -27 22 -41 18 -100 -3 -58 -8 -75 -33 -106 -49 -59 -114
-87 -216 -92 -109 -5 -170 13 -222 66 -40 41 -57 78 -57 123 l0 30 72 -3 72
-3 8 -33 c21 -80 152 -97 210 -28 47 57 11 95 -134 140 -123 38 -174 71 -202
130 -44 94 13 207 124 247 74 26 206 22 267 -10z m1219 1 c55 -28 93 -72 109
-124 17 -58 8 -68 -61 -68 -62 0 -84 7 -84 27 0 8 -13 28 -29 44 -25 24 -38
29 -79 29 -61 0 -93 -23 -127 -91 -21 -41 -25 -62 -25 -139 0 -93 14 -145 48
-183 20 -22 76 -47 106 -47 33 0 87 38 99 70 13 34 53 47 114 37 50 -8 57 -19
44 -60 -20 -58 -75 -113 -139 -137 -75 -29 -204 -25 -272 7 -105 50 -160 155
-160 308 0 188 72 300 220 342 64 18 186 10 236 -15z m-3134 -154 c504 -511
598 -609 598 -620 -1 -7 -173 -188 -384 -402 l-383 -390 -774 2 c-635 1 -776
4 -789 15 -54 48 -746 760 -748 770 -3 13 83 103 516 541 l252 256 771 0 771
0 170 -172z m997 158 c8 -10 11 -54 10 -133 l-1 -118 133 0 134 0 5 130 5 130
58 3 c33 2 65 -2 72 -8 11 -9 14 -72 14 -318 0 -169 -2 -315 -5 -324 -4 -15
-17 -18 -74 -18 l-69 0 -3 138 -3 137 -132 3 c-103 2 -133 0 -134 -10 0 -7 0
-63 1 -123 1 -61 -2 -118 -6 -128 -5 -14 -19 -17 -75 -17 l-69 0 0 328 c0 181
3 332 7 335 13 13 120 7 132 -7z m1504 -10 c57 -28 90 -77 95 -142 4 -45 1
-60 -19 -89 -13 -19 -36 -40 -51 -46 -16 -6 -28 -14 -28 -18 0 -3 18 -14 40
-24 53 -25 84 -76 83 -138 -1 -71 -29 -117 -94 -153 -54 -31 -54 -31 -233 -34
-142 -3 -180 -1 -187 10 -15 22 -11 632 4 647 9 9 53 12 182 9 141 -3 177 -7
208 -22z m-1573 -1033 l5 -143 139 145 c124 129 142 145 172 145 18 0 35 -4
38 -8 3 -5 -58 -71 -135 -148 -76 -76 -139 -143 -139 -149 0 -5 15 -26 33 -45
17 -19 72 -80 122 -135 49 -55 104 -115 122 -134 43 -45 43 -61 -2 -61 -38 0
-39 1 -135 110 -36 40 -87 98 -115 128 -27 29 -59 67 -70 83 -11 16 -23 29
-27 29 -5 0 -8 -76 -8 -170 l0 -170 -24 -6 c-14 -3 -30 -3 -35 1 -8 4 -11 117
-11 341 l0 335 33 -3 32 -3 5 -142z m528 110 c3 -28 -1 -33 -22 -39 -41 -10
-56 1 -56 41 0 36 1 36 38 33 34 -3 37 -6 40 -35z m1347 17 c12 -38 -3 -60
-41 -60 -32 0 -34 2 -34 33 0 41 5 47 41 47 19 0 30 -6 34 -20z m-233 -122 l3
-53 48 -3 c42 -3 47 -6 47 -27 0 -21 -5 -24 -47 -27 l-48 -3 -3 -163 c-1 -101
2 -170 8 -182 8 -15 21 -20 51 -20 38 0 40 -2 37 -27 -2 -23 -9 -29 -32 -31
-50 -6 -95 8 -112 33 -13 20 -17 59 -18 200 -1 96 -6 179 -12 184 -5 5 -25 11
-44 13 -27 2 -35 7 -35 23 0 16 8 21 35 23 47 5 62 19 56 54 -5 32 15 58 44
58 16 0 19 -9 22 -52z m592 -53 c70 -14 150 -140 101 -159 -25 -9 -42 3 -57
43 -40 100 -188 90 -238 -16 -25 -52 -27 -157 -5 -210 9 -20 30 -49 47 -65 26
-23 41 -28 83 -28 62 0 98 23 116 75 25 68 81 55 61 -14 -20 -65 -102 -121
-179 -121 -32 0 -115 29 -137 49 -81 70 -102 231 -46 340 35 68 71 95 150 111
34 7 51 6 104 -5z m-1343 -9 c47 -19 79 -57 90 -103 10 -43 12 -333 3 -357 -3
-9 -14 -16 -23 -16 -37 0 -41 19 -41 196 0 155 -2 174 -20 196 -26 34 -98 44
-145 22 -57 -27 -69 -67 -75 -249 -5 -155 -6 -160 -27 -163 -39 -6 -44 23 -41
255 l3 218 30 0 c25 0 31 -5 35 -29 5 -27 6 -28 20 -11 21 25 89 55 126 55 17
0 47 -6 65 -14z m462 -1 c66 -27 104 -94 109 -190 l3 -50 -160 -3 c-88 -1
-163 -6 -168 -11 -16 -16 15 -103 50 -137 30 -30 40 -34 88 -34 43 0 59 5 84
26 17 14 31 32 31 39 0 24 34 57 53 50 21 -9 22 -37 3 -73 -37 -71 -108 -103
-204 -92 -65 8 -80 16 -123 63 -35 38 -49 89 -49 172 0 89 16 137 60 187 55
63 147 85 223 53z m-838 -235 l0 -235 -25 0 -25 0 -3 225 c-1 123 0 231 3 238
3 7 15 12 27 10 l23 -3 0 -235z m1353 3 l2 -233 -25 -6 c-14 -4 -28 -5 -30 -2
-3 3 -8 384 -5 466 0 9 10 12 28 10 l27 -3 3 -232z"/>
<path d="M8570 5029 c-337 -343 -480 -490 -480 -493 0 -2 53 -57 118 -122 64
-65 233 -237 374 -381 141 -145 260 -258 263 -253 8 12 3 1510 -5 1515 -3 2
-125 -118 -270 -266z"/>
<path d="M7317 5284 c-10 -10 -8 -1492 2 -1499 9 -5 649 634 742 742 8 9 -61
86 -279 305 -160 161 -326 330 -370 376 -81 84 -84 86 -95 76z"/>
<path d="M11272 5138 l3 -83 40 -1 c63 -2 125 12 140 32 17 22 19 68 5 94 -13
25 -62 40 -132 40 l-59 0 3 -82z"/>
<path d="M11270 4861 l0 -91 63 0 c78 0 134 15 147 40 19 35 12 85 -16 111
-22 21 -37 24 -110 28 l-84 3 0 -91z"/>
<path d="M11170 4163 c-38 -15 -101 -119 -82 -137 3 -3 63 -6 133 -6 137 0
144 3 126 50 -22 57 -31 70 -62 85 -33 15 -86 19 -115 8z"/>
</g>
</svg>
